<svg version="1.1" xmlns="http://www.w3.org/2000/svg" xmlns:xlink="http://www.w3.org/1999/xlink" x="0px" y="0px" viewBox="0 0 49.9 31.1" enable-background="new 0 0 49.9 31.1" xml:space="preserve">
	<linearGradient id="SVGID_1_" gradientUnits="userSpaceOnUse" x1="47.3718" y1="28.1126" x2="22.7325" y2="7.8967">
		<stop offset="0" style="stop-color:#DD4826"/>
		<stop offset="1" style="stop-color:#EF532A"/>
	</linearGradient>
	<path fill="url(#SVGID_1_)" d="M47.6,8.6h-3.1V0L34.2,7.8v4.3l6.9-5.2v5.2h5.4v15.5h-25V12.1h4.6V8.6h-5.8c-1.3,0-2.3,1-2.3,2.3 v17.8c0,1.3,1,2.3,2.3,2.3h27.3c1.3,0,2.3-1,2.3-2.3V10.9C49.9,9.7,48.9,8.6,47.6,8.6z"/>
	<linearGradient id="SVGID_2_" gradientUnits="userSpaceOnUse" x1="2.7469" y1="0.6914" x2="25.5625" y2="22.9451">
		<stop offset="0" style="stop-color:#F26B2A"/>
		<stop offset="1" style="stop-color:#EF532A"/>
	</linearGradient>
	<path fill="url(#SVGID_2_)" d="M8.9,24.2V19H3.4V3.4h25V19h-4.6v3.4h5.8c1.3,0,2.3-1,2.3-2.3V2.3c0-1.3-1-2.3-2.3-2.3H2.3 C1,0,0,1,0,2.3v17.8c0,1.3,1,2.3,2.3,2.3h3.1v8.6l10.4-7.8V19h0L8.9,24.2z"/>
</svg>