<?xml version="1.0" standalone="no"?><!DOCTYPE svg PUBLIC "-//W3C//DTD SVG 1.1//EN" "http://www.w3.org/Graphics/SVG/1.1/DTD/svg11.dtd"><svg t="1606385628746" class="icon" viewBox="0 0 1024 1024" version="1.1" xmlns="http://www.w3.org/2000/svg" p-id="12774" width="48" height="48" xmlns:xlink="http://www.w3.org/1999/xlink"><defs><style type="text/css"></style></defs><path d="M866.304 462.72a397.12 397.12 0 0 0-94.72-131.648l-33.28-30.528a9.216 9.216 0 0 0-14.848 3.84l-14.848 42.56c-9.216 26.752-26.24 54.08-50.368 80.96a7.168 7.168 0 0 1-7.36 1.92 6.4 6.4 0 0 1-2.304-1.344 6.784 6.784 0 0 1-2.304-5.504c4.224-68.8-16.256-146.432-61.312-230.848C547.776 121.92 495.936 67.2 431.296 29.056L384 1.28a9.152 9.152 0 0 0-13.76 8.32l2.56 54.848c1.728 37.504-2.624 70.656-12.928 98.176a325.888 325.888 0 0 1-53.76 93.12 337.92 337.92 0 0 1-54.272 52.736 403.008 403.008 0 0 0-114.56 138.88 397.44 397.44 0 0 0-9.728 331.648 401.472 401.472 0 0 0 214.144 212.096c49.6 20.8 102.144 31.36 156.48 31.36 54.272 0 106.88-10.56 156.416-31.232a398.336 398.336 0 0 0 127.872-85.312 395.52 395.52 0 0 0 117.888-282.24 392.96 392.96 0 0 0-34.176-160.96z" p-id="12775" fill="#FF6058"></path></svg>